<?xml version="1.0" standalone="no"?>
<!DOCTYPE svg PUBLIC "-//W3C//DTD SVG 20010904//EN"
 "http://www.w3.org/TR/2001/REC-SVG-20010904/DTD/svg10.dtd">
<svg version="1.0" xmlns="http://www.w3.org/2000/svg"
 width="1359.000000pt" height="1359.000000pt" viewBox="0 0 1359.000000 1359.000000"
 preserveAspectRatio="xMidYMid meet">
<metadata>
Created by potrace 1.11, written by Peter Selinger 2001-2013
</metadata>
<g transform="translate(0.000000,1359.000000) scale(0.100000,-0.100000)"
fill="#000000" stroke="none">
<path d="M6682 13452 c-9 -6 5 -11 40 -15 56 -7 92 -12 198 -27 36 -5 189 -9
340 -8 151 0 289 -3 305 -6 17 -3 57 -8 90 -12 33 -3 67 -7 75 -9 8 -3 32 -7
54 -11 156 -24 287 -67 267 -87 -16 -16 -363 -11 -511 8 -19 3 -69 8 -110 11
-41 3 -91 8 -110 10 -90 10 -286 14 -299 6 -11 -8 -9 -20 9 -71 21 -56 25 -61
54 -62 17 0 42 -2 56 -4 14 -2 79 -7 145 -10 66 -4 134 -8 150 -10 36 -4 128
-13 210 -20 85 -8 206 -23 235 -29 14 -2 43 -7 65 -11 180 -26 336 -76 349
-112 8 -21 10 -20 -68 -37 -119 -25 -124 -62 -18 -133 75 -50 252 -126 362
-155 19 -5 53 -14 75 -20 151 -40 284 -45 348 -14 20 10 37 24 37 32 0 7 -32
45 -71 84 -39 39 -69 76 -66 83 10 33 130 16 307 -45 30 -10 69 -25 85 -32 17
-8 93 -39 170 -71 77 -31 160 -66 185 -77 171 -77 235 -107 324 -147 38 -18
71 -30 73 -27 11 11 -44 153 -75 194 -18 24 -32 46 -30 48 7 6 48 -8 48 -17 0
-5 7 -9 16 -9 9 0 12 -5 8 -11 -4 -7 -1 -10 6 -7 30 10 18 28 -37 54 -32 16
-59 32 -61 36 -2 4 -12 8 -23 8 -10 0 -19 5 -19 11 0 6 -7 8 -15 5 -9 -3 -18
1 -21 9 -4 8 -13 15 -21 15 -8 0 -27 9 -41 19 -15 10 -30 19 -34 20 -17 3
-104 47 -110 56 -4 6 -8 6 -8 2 0 -4 -10 -2 -22 5 -13 7 -25 13 -28 13 -8 2
-63 26 -103 46 -22 11 -42 19 -47 19 -4 0 -25 7 -46 16 -22 9 -40 16 -42 15
-1 -1 -15 5 -30 12 -25 13 -56 27 -107 48 -39 16 -200 69 -225 75 -57 13 -69
12 -63 -2 3 -8 0 -14 -7 -14 -22 0 -110 53 -110 66 0 7 -8 15 -17 18 -71 20
-237 66 -278 76 -27 6 -61 16 -75 20 -14 4 -52 13 -85 20 -33 7 -73 16 -90 21
-16 5 -46 11 -65 13 -50 7 -101 16 -130 23 -14 3 -38 7 -55 9 -16 2 -36 6 -44
9 -13 5 -108 20 -196 31 -22 3 -49 7 -61 9 -12 3 -39 7 -60 10 -21 3 -48 8
-59 10 -11 2 -61 7 -110 11 -50 3 -103 8 -120 11 -52 10 -649 14 -663 5z"/>
<path d="M10035 12629 c-4 -6 1 -19 11 -28 64 -62 91 -116 100 -206 4 -38 11
-55 32 -72 15 -13 33 -23 40 -23 6 0 12 -4 12 -10 0 -5 5 -10 11 -10 6 0 23
-9 39 -20 15 -11 29 -17 32 -14 3 2 11 -2 18 -11 7 -8 18 -15 25 -15 8 0 15
-4 17 -8 2 -5 28 -22 58 -39 80 -44 164 -97 168 -105 2 -5 8 -8 13 -8 12 0
193 -121 197 -132 2 -4 10 -8 18 -8 8 0 14 -5 14 -11 0 -5 5 -7 10 -4 6 3 13
-1 16 -9 3 -9 12 -16 20 -16 8 0 14 -4 14 -10 0 -5 5 -10 10 -10 6 0 20 -9 32
-20 12 -11 28 -20 35 -20 7 0 13 -4 13 -9 0 -5 8 -11 18 -15 9 -3 22 -9 29
-12 8 -3 10 4 7 25 -6 35 5 40 26 12 7 -11 18 -17 24 -14 6 3 8 3 4 -2 -4 -4
0 -21 8 -37 25 -48 5 -56 -60 -24 -31 15 -59 28 -63 28 -4 0 -14 9 -21 20 -7
10 -17 16 -22 13 -5 -3 -12 0 -15 6 -6 9 -60 46 -235 159 -70 46 -245 155
-285 178 -27 16 -112 65 -187 110 -76 44 -139 77 -142 74 -2 -4 -11 -43 -21
-86 -9 -44 -23 -97 -31 -119 -7 -21 -16 -57 -19 -81 -11 -75 43 -120 215 -180
115 -40 203 -83 264 -127 21 -16 44 -26 50 -22 6 3 8 3 4 -2 -4 -4 11 -21 33
-37 66 -47 181 -170 217 -231 62 -104 77 -226 34 -287 -47 -65 -169 -82 -297
-41 -196 62 -387 203 -530 391 -93 122 -169 168 -233 141 -35 -15 -145 -125
-134 -135 4 -4 3 -6 -3 -4 -5 1 -69 -57 -141 -129 l-132 -133 67 -53 c36 -30
70 -54 74 -55 5 0 16 -9 25 -19 16 -18 96 -85 176 -147 21 -16 50 -41 66 -55
15 -14 47 -42 70 -61 23 -19 90 -81 149 -137 58 -57 110 -103 115 -103 5 0 7
-3 3 -6 -3 -3 14 -31 39 -62 61 -78 58 -73 77 -113 32 -70 24 -124 -23 -152
-39 -23 -57 -27 -161 -31 -108 -5 -199 -23 -206 -42 -3 -8 -9 -12 -13 -9 -11
7 -111 -75 -104 -86 3 -5 1 -9 -4 -9 -14 0 -45 -57 -61 -109 -42 -142 25 -341
158 -468 31 -29 60 -53 65 -53 5 0 17 -6 25 -13 38 -32 126 -59 212 -64 48 -3
96 -2 106 2 10 5 22 7 27 6 4 -1 14 4 22 10 8 6 14 9 14 5 0 -10 89 44 118 72
49 48 71 88 92 166 37 135 72 191 138 225 40 21 135 -4 185 -47 9 -8 17 -12
17 -8 0 33 345 -410 510 -655 25 -37 50 -64 55 -61 6 3 7 2 3 -3 -7 -7 58
-106 74 -113 5 -2 6 -7 3 -12 -3 -4 2 -13 9 -20 12 -9 54 27 230 203 119 118
216 222 216 231 0 9 4 16 9 16 14 0 50 67 60 109 10 45 -6 92 -41 122 -13 11
-63 44 -113 74 -308 186 -512 576 -439 837 20 70 25 78 73 102 37 20 129 23
161 6 11 -6 25 -8 30 -5 6 3 10 2 10 -4 0 -5 10 -13 23 -16 48 -15 167 -116
227 -194 14 -18 33 -42 43 -54 28 -33 87 -137 156 -272 137 -272 185 -251 260
115 l18 90 -63 85 c-35 46 -64 87 -64 90 0 16 27 0 56 -32 29 -33 33 -35 26
-13 -12 38 -9 65 8 65 8 0 15 -4 15 -10 2 -35 49 -157 74 -190 17 -22 31 -45
31 -52 0 -6 3 -13 8 -15 13 -5 210 -316 265 -418 16 -30 35 -62 41 -70 7 -8
21 -32 31 -52 11 -21 23 -38 27 -38 5 0 7 -3 6 -7 -1 -5 27 -69 64 -143 59
-122 79 -165 83 -180 0 -3 9 -29 19 -58 19 -56 25 -116 13 -129 -5 -4 -16 -3
-25 3 -24 14 -50 6 -58 -19 -13 -38 -15 -50 -15 -122 0 -66 3 -93 16 -157 3
-16 7 -38 9 -50 14 -78 78 -286 115 -371 11 -26 20 -50 20 -54 0 -3 3 -9 8
-12 4 -3 17 -23 27 -44 26 -50 81 -113 105 -120 35 -9 73 52 73 116 -1 23 -8
69 -18 102 -9 33 -19 86 -22 119 -6 86 15 69 54 -45 18 -52 33 -88 33 -81 2
35 -95 330 -206 627 -110 296 -129 343 -210 515 -25 52 -54 115 -66 140 -11
25 -23 47 -26 50 -7 6 -36 58 -65 118 -12 24 -26 39 -30 35 -5 -5 -6 -2 -1 6
4 7 4 16 -1 20 -5 3 -22 32 -39 63 -16 32 -33 58 -37 58 -5 0 -8 6 -8 13 0 7
-10 24 -22 37 -13 14 -22 26 -20 27 6 7 1 23 -10 35 -7 7 -24 33 -37 58 -13
25 -29 52 -36 60 -7 8 -14 22 -17 30 -11 31 -180 274 -204 292 -13 11 -24 26
-24 33 0 7 -7 21 -16 29 -8 9 -13 16 -9 16 6 0 -6 16 -43 55 -13 14 -20 25
-16 25 4 0 -5 11 -20 25 -14 13 -26 27 -26 30 0 4 -6 13 -12 20 -7 8 -24 28
-38 45 -14 18 -33 39 -42 48 -10 9 -18 22 -18 29 0 7 -7 13 -15 13 -8 0 -14 4
-13 9 3 7 -53 77 -104 132 -10 11 -18 21 -18 24 0 3 -10 16 -22 29 -19 19
-141 154 -158 175 -3 3 -22 21 -43 38 -20 18 -37 36 -36 40 1 5 -7 13 -18 18
-11 6 -18 16 -15 23 2 8 -2 10 -13 6 -9 -4 -15 -3 -13 2 2 5 -1 10 -5 11 -13
4 -37 31 -37 42 0 6 -4 11 -10 11 -5 0 -36 25 -67 56 -53 52 -125 118 -228
209 -22 20 -65 55 -95 78 -30 23 -67 54 -82 69 -16 15 -28 25 -28 22 0 -4 -10
5 -21 20 -12 15 -23 25 -26 23 -2 -3 -17 7 -32 21 -37 36 -80 70 -113 90 -16
9 -28 20 -28 24 0 4 -7 8 -15 8 -8 0 -15 3 -15 8 0 4 -18 18 -40 32 -22 14
-40 28 -40 32 0 5 -7 8 -15 8 -8 0 -15 5 -15 10 0 6 -7 10 -15 10 -8 0 -15 5
-15 10 0 6 -7 10 -15 10 -8 0 -15 5 -15 10 0 6 -5 10 -11 10 -6 0 -30 14 -54
30 -24 17 -46 30 -50 30 -3 0 -15 9 -27 20 -12 11 -28 20 -35 20 -7 0 -13 5
-13 10 0 6 -5 10 -11 10 -6 0 -30 14 -54 30 -24 17 -48 30 -52 30 -5 0 -19 9
-31 21 -12 11 -27 17 -32 14 -6 -4 -13 1 -16 9 -3 9 -11 16 -16 16 -5 0 -21 9
-35 20 -14 11 -29 17 -34 14 -5 -3 -9 -1 -9 5 0 7 -84 61 -96 61 -1 0 -6 -5
-9 -11z"/>
<path d="M6599 12507 c-23 -18 -120 -100 -135 -114 -7 -7 -15 -13 -18 -13 -6
0 -40 -34 -83 -83 -19 -22 -30 -43 -26 -52 6 -17 62 -50 69 -42 3 3 26 -2 51
-9 25 -8 61 -14 80 -14 18 0 33 -4 33 -8 0 -4 8 -9 18 -10 22 -2 42 -7 67 -16
11 -5 34 -12 50 -18 42 -14 157 -70 175 -86 8 -7 18 -12 23 -12 10 0 117 -111
117 -121 0 -5 0 -11 0 -14 -1 -3 5 -12 13 -19 18 -19 12 -87 -13 -135 -21 -43
-85 -101 -110 -101 -9 0 -22 -6 -28 -12 -16 -16 -236 -21 -284 -7 -18 5 -46
12 -61 14 -15 3 -37 10 -48 15 -10 6 -28 15 -39 20 -12 6 -25 8 -29 5 -5 -3
-11 2 -15 10 -3 8 -15 15 -26 15 -11 0 -20 5 -20 10 0 6 -7 10 -15 10 -8 0
-15 5 -15 10 0 6 -6 10 -13 10 -7 0 -18 9 -25 20 -7 11 -17 20 -23 20 -6 0
-27 18 -47 40 -52 56 -58 63 -75 96 -22 42 -82 104 -101 104 -9 0 -16 4 -16 8
0 12 -87 14 -95 2 -3 -5 -14 -10 -23 -10 -9 0 -28 -9 -42 -20 -14 -11 -33 -20
-42 -20 -10 0 -18 -4 -18 -8 0 -4 -22 -19 -50 -33 -27 -13 -50 -27 -50 -31 0
-5 -9 -8 -20 -8 -11 0 -20 -4 -20 -9 0 -5 -15 -14 -32 -22 -18 -7 -35 -15 -38
-19 -3 -3 -22 -14 -43 -25 -21 -11 -40 -23 -43 -26 -2 -4 54 -65 125 -137 71
-72 126 -133 123 -137 -3 -3 2 -5 11 -5 10 0 17 -3 17 -7 0 -5 15 -24 33 -44
17 -19 52 -59 77 -88 25 -29 51 -59 58 -66 6 -8 12 -17 12 -20 0 -4 13 -24 29
-44 42 -53 72 -117 78 -166 4 -38 2 -46 -22 -67 -26 -22 -33 -23 -203 -23
-169 0 -179 -1 -226 -25 -28 -14 -64 -38 -81 -55 -38 -35 -78 -99 -68 -108 3
-4 2 -7 -3 -7 -9 0 -14 -29 -17 -90 -1 -44 14 -139 24 -146 5 -3 7 -9 4 -14
-7 -12 61 -109 107 -152 70 -64 139 -90 252 -93 141 -3 267 71 331 195 28 53
57 87 104 120 48 33 149 35 206 4 22 -13 50 -32 62 -44 12 -11 27 -20 32 -20
5 0 13 -9 16 -20 4 -11 11 -18 16 -15 5 4 9 -1 9 -9 0 -8 10 -22 22 -30 12 -9
19 -16 14 -16 -5 0 0 -8 10 -17 10 -10 39 -47 64 -83 24 -36 48 -69 53 -75 4
-5 37 -50 73 -100 36 -49 72 -98 79 -107 8 -10 12 -18 9 -18 -2 0 7 -12 21
-27 14 -15 25 -31 25 -34 0 -5 13 -23 50 -66 6 -7 8 -13 5 -13 -3 0 4 -10 15
-22 12 -13 30 -38 41 -55 24 -38 40 -41 77 -15 15 11 42 25 60 33 17 8 32 17
32 21 0 5 9 8 20 8 11 0 20 3 20 8 0 4 25 18 55 32 30 14 55 28 55 33 0 4 4 7
9 7 5 0 47 21 93 48 46 26 97 54 113 62 17 8 49 27 72 42 23 15 44 28 48 28 3
0 15 9 27 20 12 11 28 20 35 20 7 0 13 3 13 8 0 4 13 13 28 20 44 19 120 94
133 129 9 26 8 35 -4 47 -8 8 -17 12 -21 9 -3 -4 -6 1 -6 10 0 10 -8 17 -18
17 -10 0 -22 4 -27 8 -6 5 -30 14 -55 21 -96 28 -230 87 -230 103 0 4 -4 8
-10 8 -13 0 -42 24 -94 77 -59 60 -68 72 -93 122 -13 24 -23 40 -24 35 0 -5
-7 14 -15 41 -19 67 -19 215 0 215 5 0 7 3 3 6 -3 4 0 13 8 21 8 8 15 23 15
34 0 11 5 17 10 14 6 -3 10 -1 10 6 0 26 98 104 161 129 56 22 80 25 189 25
115 0 168 -8 235 -35 11 -5 37 -14 58 -21 20 -7 37 -17 37 -21 0 -4 8 -8 18
-8 9 0 30 -11 46 -25 16 -14 32 -25 36 -25 4 0 25 -16 46 -35 22 -19 42 -35
46 -35 4 0 9 -8 12 -17 3 -10 16 -29 29 -43 25 -28 73 -120 69 -134 -2 -4 1
-13 6 -20 5 -6 12 -23 16 -38 3 -16 11 -28 16 -28 6 0 10 -6 10 -13 0 -32 88
-78 135 -70 39 7 85 26 85 35 0 5 6 8 13 8 6 0 24 10 39 23 60 51 68 57 74 57
3 0 11 6 18 13 7 6 28 23 46 37 19 14 45 35 58 48 14 12 28 22 31 22 4 0 23
15 42 33 19 17 48 41 63 52 16 11 43 33 60 48 17 16 41 36 54 44 12 8 22 19
22 23 0 5 -24 25 -52 46 -29 21 -56 43 -60 49 -5 6 -8 6 -8 0 0 -6 -4 -5 -8 1
-8 13 -99 84 -108 84 -3 0 -11 6 -18 13 -7 6 -28 23 -46 37 -18 14 -39 31 -46
38 -7 6 -16 12 -19 12 -7 0 -84 58 -95 70 -3 4 -27 22 -55 40 -27 19 -51 37
-53 42 -2 4 -9 8 -16 8 -6 0 -18 9 -26 20 -8 11 -20 20 -27 20 -7 0 -13 5 -13
10 0 6 -6 10 -14 10 -8 0 -16 4 -18 8 -1 5 -30 28 -63 53 -33 24 -63 48 -67
54 -4 5 -8 7 -8 3 0 -4 -17 8 -37 27 -20 19 -41 32 -45 29 -4 -3 -8 1 -8 9 0
8 -6 17 -14 20 -9 4 -12 14 -9 27 3 11 8 18 11 16 3 -3 12 2 21 12 23 26 70
42 132 47 158 11 231 87 178 187 -13 25 -73 88 -83 88 -4 0 -16 9 -28 20 -32
30 -199 110 -233 113 -16 1 -32 5 -35 8 -13 14 -195 43 -275 43 -137 -1 -184
-35 -170 -125 19 -125 5 -147 -93 -147 -37 0 -89 7 -115 15 -27 8 -51 12 -55
9 -3 -3 -10 -2 -16 3 -14 12 -197 81 -213 81 -7 0 -13 5 -13 11 0 6 -6 9 -12
6 -7 -2 -22 0 -33 6 -11 6 -29 12 -40 14 -10 2 -22 7 -25 11 -3 4 -14 9 -25
10 -11 2 -24 7 -30 12 -5 4 -21 10 -35 13 -14 3 -82 25 -152 50 -71 25 -128
43 -128 40 0 -3 -7 0 -15 7 -8 7 -15 9 -15 4 0 -4 -5 -3 -12 4 -7 7 -22 12
-33 12 -12 0 -25 3 -29 7 -6 7 -76 33 -86 33 -3 -1 -12 -6 -21 -13z"/>
<path d="M4452 12003 c-29 -33 -54 -106 -55 -162 -1 -74 42 -221 64 -221 5 0
9 -6 9 -14 0 -7 7 -19 16 -27 9 -7 28 -38 44 -69 39 -77 37 -146 -5 -190 -48
-51 -103 -75 -390 -172 -161 -54 -151 -47 -149 -110 2 -29 5 -152 8 -273 4
-121 8 -233 10 -250 14 -121 21 -154 35 -187 29 -68 68 -54 156 56 120 148
264 201 410 151 98 -34 179 -113 239 -232 37 -73 40 -84 42 -178 3 -82 -1
-112 -19 -165 -64 -190 -220 -316 -400 -325 -44 -2 -74 2 -147 19 -191 45
-233 -21 -185 -294 25 -146 26 -153 30 -180 7 -51 36 -214 40 -220 2 -3 6 -27
9 -55 7 -66 34 -217 39 -222 2 -1 70 20 152 47 83 28 156 50 163 50 6 0 12 5
12 11 0 5 4 8 9 5 7 -5 114 26 181 51 8 3 21 7 28 9 17 3 223 64 242 71 8 3
22 7 30 8 8 1 42 10 76 19 92 24 205 34 245 21 57 -19 69 -56 62 -199 -13
-262 -3 -370 43 -473 23 -53 77 -116 126 -146 58 -36 209 -52 288 -31 14 4 38
8 54 10 73 10 246 102 246 132 0 7 4 11 9 8 9 -6 55 48 88 104 24 40 53 126
52 155 0 11 2 31 3 45 8 58 -39 230 -62 230 -4 0 -10 9 -13 21 -4 13 -10 18
-18 13 -7 -4 -10 -3 -5 4 7 12 -57 66 -128 107 -55 32 -130 105 -152 147 -31
60 -21 152 21 198 8 9 13 20 10 23 -3 4 -2 5 1 3 3 -3 20 8 38 25 25 23 157
101 176 104 15 2 747 360 759 371 3 3 -45 80 -59 94 -3 3 -18 25 -34 49 -16
25 -33 50 -38 55 -4 6 -21 29 -36 52 -92 138 -136 199 -144 202 -4 2 -8 8 -8
13 0 5 -24 40 -52 77 -29 37 -57 73 -63 81 -5 8 -40 45 -78 82 -56 58 -73 69
-101 69 -45 0 -66 -21 -114 -115 -47 -91 -78 -128 -142 -171 -168 -112 -371
-113 -527 -2 -111 79 -166 162 -189 285 -29 164 -2 285 85 372 23 23 41 39 41
37 0 -3 24 6 53 19 64 30 111 37 239 39 54 0 98 4 98 8 0 4 6 5 14 2 20 -8 56
31 56 59 0 25 -46 104 -83 141 -12 13 -31 34 -42 47 -101 117 -230 253 -239
251 -6 -2 -8 0 -4 4 10 9 -83 110 -97 106 -5 -2 -7 0 -2 4 4 4 0 15 -9 25 -15
16 -25 12 -177 -63 -211 -105 -325 -149 -396 -152 -104 -5 -140 40 -148 184
-5 96 -14 132 -49 194 -52 93 -139 157 -220 161 -36 2 -45 -3 -72 -32z"/>
<path d="M1893 11362 c-178 -179 -230 -233 -293 -312 -25 -30 -47 -57 -50 -60
-12 -11 -88 -108 -115 -145 l-29 -40 36 35 c20 19 34 38 32 42 -3 4 1 8 8 8
30 0 386 346 434 421 15 24 27 45 26 47 -1 1 6 11 16 21 28 32 39 46 52 72 7
13 16 26 19 29 13 11 33 40 28 40 -4 0 -77 -71 -164 -158z"/>
<path d="M7750 11224 c-169 -31 -263 -133 -264 -284 0 -36 4 -74 8 -85 5 -11
10 -26 12 -33 2 -12 35 -62 67 -103 25 -31 115 -95 177 -125 81 -39 158 -74
165 -74 9 0 67 -42 103 -75 113 -102 60 -239 -138 -354 -30 -18 -62 -36 -70
-41 -27 -18 -273 -156 -354 -199 -180 -97 -252 -135 -273 -145 -13 -6 -23 -14
-23 -18 0 -5 -7 -8 -15 -8 -8 0 -15 -7 -15 -15 0 -8 5 -15 10 -15 6 0 10 -7
10 -15 0 -8 5 -15 10 -15 6 0 10 -7 10 -15 0 -8 5 -15 10 -15 6 0 10 -4 10 -9
0 -11 301 -465 312 -469 4 -2 8 -9 8 -15 0 -7 10 -23 23 -37 12 -14 34 -43 49
-65 38 -56 128 -149 160 -164 53 -27 76 -9 185 145 143 202 275 299 463 341
22 5 192 5 210 0 8 -2 29 -7 45 -11 105 -26 255 -112 325 -186 45 -47 97 -151
107 -210 9 -55 6 -158 -7 -210 -11 -50 -67 -175 -90 -203 -102 -124 -183 -185
-315 -238 -72 -28 -127 -37 -275 -43 -159 -7 -237 -40 -259 -110 -20 -60 -13
-76 159 -401 32 -61 125 -240 258 -497 l39 -76 78 44 c42 24 80 44 84 44 4 0
16 8 27 18 10 10 34 25 52 32 17 8 32 18 32 22 0 5 5 8 10 8 6 0 57 31 113 68
345 231 642 372 838 398 101 13 173 -36 210 -142 18 -49 22 -86 24 -224 3
-187 5 -201 45 -287 29 -64 103 -153 125 -153 8 0 15 -4 17 -9 7 -19 125 -48
203 -50 85 -2 187 24 276 70 56 28 157 130 191 191 66 118 90 266 66 398 -24
133 -109 247 -228 308 -84 42 -153 101 -188 160 -37 63 -38 154 -3 226 21 43
114 146 166 186 11 8 56 42 100 75 44 32 85 63 90 68 6 4 33 25 61 45 58 44
73 56 120 100 20 17 39 32 44 32 5 0 10 3 12 8 2 4 43 41 93 82 49 41 98 82
107 90 16 15 13 22 -48 110 -35 52 -70 102 -77 111 -6 8 -16 23 -22 32 -28 46
-188 276 -210 301 -14 16 -25 32 -25 35 0 3 -10 18 -22 31 -13 14 -48 55 -78
90 -68 81 -120 130 -137 130 -7 0 -13 5 -13 10 0 11 -69 13 -86 2 -20 -13 -42
-66 -64 -152 -27 -104 -57 -157 -126 -219 -52 -46 -142 -98 -181 -104 -10 -1
-23 -5 -28 -9 -13 -8 -190 -4 -230 5 -16 4 -39 11 -50 16 -45 19 -120 56 -125
61 -3 3 -28 22 -56 43 -263 190 -317 567 -111 771 79 77 159 112 282 120 96 7
143 20 166 47 24 27 23 33 -1 88 -18 39 -112 140 -196 211 -37 32 -205 177
-270 235 -12 11 -42 36 -65 55 -63 51 -130 108 -159 133 -56 51 -54 51 -98 10
-23 -21 -76 -67 -119 -103 -43 -35 -80 -67 -83 -71 -3 -3 -45 -36 -95 -73 -49
-37 -98 -74 -107 -81 -16 -13 -167 -99 -178 -101 -3 0 -18 -6 -35 -13 -44 -19
-147 -25 -188 -12 -70 23 -124 97 -162 221 -47 155 -170 270 -359 337 -42 14
-201 25 -246 17z"/>
<path d="M1815 11109 c-35 -34 -62 -65 -59 -70 3 -5 1 -9 -5 -9 -9 0 -139
-150 -144 -166 -1 -4 -26 -32 -54 -63 -29 -31 -53 -59 -53 -63 0 -5 -8 -16
-17 -26 -10 -10 -49 -54 -88 -98 -92 -104 -185 -194 -202 -194 -10 0 -10 6 -2
28 6 15 11 29 11 32 1 9 18 51 28 71 21 37 1 18 -39 -38 -22 -32 -39 -61 -38
-65 1 -4 -5 -13 -14 -20 -19 -16 -109 -153 -109 -167 0 -5 -4 -11 -8 -13 -5
-1 -22 -28 -39 -58 -55 -99 -86 -154 -113 -205 -15 -27 -41 -76 -59 -107 -17
-31 -30 -60 -29 -65 6 -24 -179 -477 -332 -808 -134 -290 -151 -385 -96 -533
8 -20 17 -46 20 -56 4 -10 9 -17 11 -14 5 5 91 243 106 293 5 17 13 39 18 50
10 22 55 137 57 145 0 3 6 19 13 35 7 17 24 59 38 95 14 36 47 111 74 167 27
57 49 105 49 108 0 2 16 29 35 59 19 30 35 58 35 61 0 7 14 24 49 61 33 35 44
19 41 -58 -4 -108 3 -154 20 -143 6 3 10 2 10 -4 0 -6 11 -6 31 1 42 14 130
102 160 160 6 13 15 25 19 28 24 16 121 207 191 375 43 105 52 246 15 245 -6
0 -36 -16 -66 -35 -62 -40 -90 -45 -90 -15 0 33 53 141 116 236 64 96 64 97
95 134 12 14 33 41 48 60 14 19 28 37 31 40 3 3 32 39 65 80 101 126 259 315
267 318 5 2 8 10 8 18 0 9 5 12 10 9 6 -3 10 -2 10 3 0 6 20 32 45 60 47 52
51 65 36 104 -5 13 -12 35 -15 51 -4 15 -11 27 -16 27 -5 0 -39 -28 -75 -61z"/>
<path d="M3915 11135 c-5 -2 -64 -20 -130 -40 -247 -76 -338 -116 -364 -158
-14 -21 -16 -62 -6 -122 11 -64 13 -243 4 -299 -23 -141 -91 -276 -189 -375
-134 -134 -280 -160 -350 -61 -11 16 -23 39 -25 50 -2 11 -7 24 -10 30 -7 12
-8 147 -1 179 15 65 40 141 62 189 13 29 24 57 24 61 0 5 4 11 8 13 8 3 96
147 126 205 17 35 24 83 13 100 -4 6 -24 10 -45 8 -52 -4 -223 -25 -247 -30
-11 -2 -34 -4 -51 -4 -30 -1 -34 -6 -94 -128 -56 -114 -81 -168 -85 -183 0 -3
-14 -32 -29 -65 -15 -33 -35 -76 -43 -95 -8 -19 -28 -62 -43 -95 -16 -33 -44
-94 -63 -135 -59 -130 -101 -215 -107 -220 -3 -3 -18 -26 -33 -52 -32 -55 -92
-108 -118 -103 -36 7 -56 25 -80 69 -13 25 -33 50 -45 57 -24 13 -114 4 -114
-11 0 -5 -8 -11 -18 -15 -71 -22 -242 -262 -299 -419 -35 -96 -48 -215 -30
-281 3 -11 6 -23 6 -27 1 -3 12 -19 25 -35 39 -47 70 -42 193 30 128 74 156
87 188 87 67 0 78 -122 31 -345 -8 -38 -17 -87 -20 -109 -4 -21 -8 -41 -10
-45 -2 -3 -7 -26 -10 -51 -3 -25 -8 -55 -10 -66 -2 -12 -7 -37 -10 -55 -3 -19
-8 -45 -11 -59 -3 -14 -8 -43 -10 -65 -3 -22 -12 -80 -21 -130 -13 -80 -23
-142 -38 -238 l-5 -28 77 6 c42 4 86 9 97 11 10 2 49 6 85 9 73 7 133 14 170
20 14 2 42 7 63 10 140 20 247 54 284 90 38 38 35 103 -7 185 -55 106 -64 143
-66 255 -3 210 62 381 196 515 108 109 207 159 305 154 96 -5 185 -63 238
-156 15 -26 27 -49 27 -50 -1 -2 6 -20 14 -40 48 -114 37 -309 -25 -447 -90
-199 -76 -295 42 -290 47 2 112 16 149 32 8 4 26 8 40 11 20 4 101 26 145 40
6 2 13 4 17 5 4 1 38 11 75 22 95 29 165 49 183 54 78 20 207 59 212 64 4 4 1
45 -7 91 -8 47 -18 105 -21 130 -3 25 -8 47 -9 50 -2 3 -6 26 -10 50 -3 25 -9
59 -11 75 -6 34 -12 73 -19 130 -3 22 -7 51 -9 65 -3 14 -8 52 -11 85 -4 33
-9 71 -11 85 -6 43 -6 233 0 278 8 57 40 117 73 139 37 25 123 22 196 -5 131
-50 249 -30 360 61 105 87 152 241 123 402 -16 90 -115 213 -203 251 -113 50
-219 17 -337 -105 -37 -39 -72 -71 -77 -71 -5 0 -9 -4 -9 -8 0 -14 -88 -51
-111 -47 -78 15 -118 100 -124 264 -2 47 -4 213 -4 369 -1 155 -2 282 -4 281
-1 0 -6 -2 -12 -4z"/>
<path d="M2934 9208 c-3 -4 -13 -8 -22 -8 -10 0 -34 -11 -55 -25 -20 -14 -37
-23 -37 -21 0 3 -25 -20 -55 -51 -30 -31 -52 -60 -49 -65 3 -4 0 -8 -5 -8 -14
0 -76 -123 -91 -180 -34 -124 -34 -232 -3 -310 3 -8 5 -19 4 -23 -1 -4 6 -15
14 -23 8 -9 13 -19 10 -24 -3 -5 0 -10 5 -12 6 -2 13 -17 16 -33 3 -17 8 -43
13 -60 13 -51 4 -150 -17 -191 -45 -86 -140 -148 -244 -158 -20 -2 -40 -6 -45
-9 -5 -3 -40 -8 -77 -11 -38 -4 -72 -9 -77 -12 -5 -3 -32 -7 -61 -9 -29 -1
-73 -6 -98 -9 -25 -4 -72 -8 -105 -11 -146 -11 -192 -18 -192 -29 -1 -6 -4
-38 -7 -71 -4 -33 -8 -85 -11 -115 -2 -30 -7 -84 -11 -120 -11 -118 -13 -144
-20 -260 -9 -131 -10 -338 -2 -390 8 -51 34 -107 55 -118 23 -13 88 16 121 54
12 14 22 23 22 21 0 -2 17 12 38 32 40 38 101 72 166 92 49 15 196 15 224 0
11 -6 30 -11 41 -11 12 0 21 -3 21 -8 0 -4 13 -13 28 -20 16 -6 38 -21 50 -32
12 -11 26 -20 32 -20 5 0 10 -4 10 -10 0 -5 10 -19 23 -32 25 -26 58 -75 56
-84 0 -4 3 -10 8 -13 9 -6 53 -103 58 -126 1 -5 7 -29 14 -53 26 -93 21 -210
-16 -332 -9 -30 -16 -56 -14 -58 1 -1 -5 -10 -14 -18 -8 -9 -15 -22 -15 -30 0
-8 -4 -14 -9 -14 -5 0 -12 -8 -15 -17 -3 -10 -25 -38 -48 -63 -24 -25 -41 -49
-40 -55 2 -5 0 -7 -3 -3 -4 4 -26 -5 -49 -20 -49 -33 -87 -52 -106 -55 -8 -2
-21 -6 -29 -11 -28 -18 -172 -14 -225 6 -28 10 -59 21 -68 25 -10 3 -18 9 -18
14 0 5 -7 9 -15 9 -8 0 -15 3 -15 8 0 8 -49 32 -67 32 -7 0 -13 4 -13 9 0 13
-83 6 -88 -7 -2 -7 -7 -10 -12 -7 -4 2 -13 -15 -20 -40 -14 -51 -8 -178 14
-295 3 -19 8 -51 11 -70 2 -19 6 -45 9 -56 2 -12 7 -38 10 -58 12 -75 18 -111
20 -121 2 -5 6 -32 10 -60 4 -27 12 -66 17 -86 5 -20 11 -49 13 -65 9 -64 37
-207 42 -216 6 -10 151 2 214 17 3 1 28 5 55 10 28 5 52 10 55 10 52 14 164
35 210 40 19 2 57 8 83 13 68 14 385 8 399 -6 7 -7 22 -12 35 -12 27 0 73 -20
73 -32 0 -5 5 -6 10 -3 6 3 10 2 10 -3 0 -4 10 -19 21 -31 40 -43 59 -111 55
-203 -2 -45 -7 -94 -11 -108 -10 -42 -17 -102 -16 -155 1 -82 3 -99 12 -116 4
-9 10 -27 13 -40 6 -33 52 -112 85 -148 16 -17 26 -33 23 -36 -3 -3 2 -5 11
-5 9 0 17 -5 17 -12 0 -6 3 -9 6 -5 3 3 16 -4 28 -16 24 -25 101 -67 122 -67
8 0 14 -4 14 -8 0 -4 12 -9 26 -10 14 -1 31 -5 37 -9 26 -16 255 -19 271 -3 5
5 18 10 27 10 22 0 119 50 119 61 0 5 5 9 11 9 15 0 69 52 69 67 0 7 4 13 10
13 10 0 57 93 66 132 11 44 12 157 3 195 -5 21 -11 46 -14 56 -11 47 -74 142
-126 192 -33 30 -62 55 -65 55 -11 0 -84 84 -90 103 -3 9 -9 17 -14 17 -14 0
-42 86 -44 137 -1 33 4 59 18 83 24 41 85 100 104 100 6 0 12 3 12 8 0 13 123
56 280 97 36 10 78 22 93 28 15 5 36 11 45 12 9 1 24 4 32 7 8 3 35 11 60 17
53 14 149 43 275 82 50 15 137 42 195 59 151 45 170 53 170 65 0 5 -14 48 -31
95 -17 47 -32 92 -34 100 -2 8 -4 16 -5 18 -2 1 -3 5 -5 10 -1 4 -4 14 -8 22
-3 8 -21 62 -41 120 -70 209 -117 341 -140 394 -13 30 -22 57 -18 60 3 3 1 6
-4 6 -5 0 -18 23 -29 50 -11 28 -23 50 -27 50 -4 0 -8 7 -8 15 0 8 -4 15 -10
15 -5 0 -10 6 -10 14 0 7 -15 21 -34 30 -37 18 -71 11 -95 -18 -7 -9 -20 -16
-27 -16 -8 0 -14 -4 -14 -10 0 -5 -4 -10 -10 -10 -10 0 -37 -20 -72 -52 -10
-10 -20 -17 -23 -15 -2 1 -14 -6 -25 -15 -11 -10 -25 -18 -30 -18 -6 0 -10 -3
-10 -7 0 -5 -10 -13 -23 -19 -12 -6 -57 -29 -99 -52 -136 -71 -197 -87 -330
-87 -78 1 -122 5 -130 13 -7 7 -20 12 -30 12 -10 0 -18 5 -18 10 0 6 -7 10
-15 10 -8 0 -15 5 -15 10 0 6 -4 10 -9 10 -5 0 -26 16 -45 35 -20 19 -33 35
-30 35 4 0 -2 8 -14 18 -34 29 -101 174 -120 257 -8 38 -8 190 0 230 15 72 81
215 100 215 4 0 8 6 8 13 0 7 16 30 35 50 19 20 35 35 35 32 0 -2 16 11 34 30
36 35 134 91 196 112 19 6 65 17 101 24 71 13 148 3 301 -39 75 -21 153 1 183
51 14 23 19 50 19 97 -1 72 -7 121 -18 139 -4 6 -10 27 -12 46 -2 19 -14 74
-25 123 -20 85 -27 116 -34 157 -4 18 -21 97 -30 135 -2 8 -4 15 -5 15 -1 0
-3 9 -4 20 -3 25 -46 222 -55 251 -6 21 -8 21 -56 9 -27 -8 -57 -15 -65 -17
-8 -1 -17 -6 -20 -10 -3 -4 -17 -9 -30 -11 -14 -2 -33 -7 -42 -11 -9 -4 -22
-9 -30 -10 -63 -15 -79 -20 -84 -27 -3 -5 -18 -9 -33 -9 -15 0 -31 -4 -36 -8
-10 -9 -148 -48 -195 -56 -14 -2 -38 -9 -55 -16 -16 -6 -31 -11 -33 -10 -1 1
-15 -1 -30 -4 -127 -28 -156 -32 -227 -30 -119 2 -123 3 -158 33 -29 26 -34
37 -36 80 -1 28 4 70 10 93 7 24 13 48 15 53 1 6 20 48 42 95 55 117 65 159
66 280 1 90 -3 114 -24 165 -13 33 -30 66 -37 73 -7 7 -13 18 -13 23 0 6 -4 7
-10 4 -5 -3 -10 1 -10 9 0 9 -7 16 -15 16 -8 0 -15 4 -15 9 0 27 -191 63 -206
39z"/>
<path d="M11340 8789 c-19 -17 -50 -44 -68 -60 -18 -16 -35 -29 -37 -29 -5 0
-37 -25 -60 -47 -7 -7 -48 -40 -92 -75 -43 -34 -80 -64 -83 -67 -3 -3 -25 -22
-50 -41 -25 -19 -46 -38 -48 -42 -2 -4 -10 -8 -18 -8 -8 0 -14 -4 -14 -10 0
-5 -7 -10 -15 -10 -8 0 -15 -4 -15 -9 0 -5 -13 -14 -30 -21 -16 -7 -27 -16
-24 -21 3 -5 0 -9 -5 -9 -26 0 -149 -126 -152 -155 -1 -5 -3 -23 -5 -40 -7
-54 45 -122 118 -153 21 -9 38 -20 38 -24 0 -5 8 -8 18 -8 10 0 28 -9 40 -20
12 -11 24 -20 27 -20 14 0 105 -107 121 -142 9 -21 21 -38 26 -38 5 0 6 -4 3
-10 -3 -5 -1 -10 6 -10 7 0 10 -3 6 -6 -3 -4 0 -19 9 -35 8 -16 12 -29 9 -29
-3 0 -1 -9 4 -19 41 -76 25 -361 -24 -421 -21 -27 -29 -44 -16 -36 13 9 -48
-86 -63 -96 -6 -4 -8 -8 -3 -8 10 0 -37 -54 -105 -121 -45 -44 -147 -110 -178
-115 -3 0 -18 -6 -34 -13 -90 -37 -244 -36 -354 2 -41 14 -82 33 -91 41 -10 9
-22 16 -27 16 -5 0 -16 9 -24 19 -7 11 -16 19 -19 17 -3 -1 -18 11 -33 26 -15
15 -24 28 -21 28 3 0 -4 8 -15 19 -12 10 -19 21 -15 25 3 3 2 6 -4 6 -14 0
-58 95 -77 165 -10 40 -13 87 -9 163 8 171 6 230 -6 261 -28 67 -119 73 -236
15 -41 -20 -75 -41 -75 -46 0 -5 -4 -6 -10 -3 -5 3 -10 2 -10 -3 0 -4 -16 -14
-35 -22 -19 -8 -35 -16 -35 -19 0 -3 -19 -15 -43 -26 -23 -11 -44 -22 -47 -25
-3 -3 -14 -10 -25 -16 -35 -19 -109 -60 -150 -84 -58 -33 -154 -86 -195 -106
-19 -10 -37 -20 -40 -23 -3 -4 -18 -13 -35 -21 -16 -8 -32 -17 -35 -21 -3 -3
-21 -13 -40 -22 -19 -9 -48 -25 -64 -36 -17 -11 -33 -18 -38 -15 -4 3 -8 2 -8
-3 0 -4 -17 -16 -39 -26 -31 -16 -37 -23 -33 -43 2 -13 8 -24 13 -24 5 0 9 -9
9 -20 0 -11 4 -20 9 -20 5 0 12 -11 15 -25 4 -14 11 -25 17 -25 6 0 8 -4 5 -9
-8 -13 4 -42 15 -35 5 3 6 -1 3 -9 -3 -8 2 -22 11 -30 9 -9 15 -19 15 -22 -1
-3 12 -34 28 -68 52 -107 92 -197 91 -203 0 -4 3 -10 8 -13 4 -3 13 -19 20
-36 6 -16 28 -68 48 -115 37 -85 83 -210 90 -243 2 -9 7 -22 10 -27 4 -6 8
-22 11 -35 2 -14 7 -37 10 -52 14 -71 12 -169 -6 -215 -18 -49 -41 -78 -59
-78 -6 0 -11 -4 -11 -9 0 -4 -26 -17 -57 -27 -58 -19 -149 -23 -318 -15 -77 4
-173 -7 -181 -20 -3 -5 -16 -9 -30 -9 -14 0 -36 -7 -49 -16 -14 -9 -25 -13
-25 -9 0 3 -13 -3 -29 -14 -16 -12 -32 -21 -35 -21 -6 0 -92 -57 -120 -80 -48
-39 -95 -94 -89 -104 3 -6 3 -8 -2 -4 -5 5 -14 -1 -22 -11 -15 -22 -67 -123
-67 -131 1 -3 -5 -25 -13 -49 -16 -54 -17 -152 -2 -223 20 -95 105 -206 189
-245 19 -10 37 -19 40 -22 6 -7 9 -8 95 -26 86 -18 197 -10 295 20 69 22 183
85 243 135 49 40 132 130 120 130 -15 0 158 157 193 175 22 11 42 23 45 28 9
13 111 20 164 13 38 -6 56 -17 99 -59 48 -48 106 -142 106 -174 0 -7 5 -13 12
-13 6 0 9 -2 6 -5 -3 -4 8 -43 24 -88 16 -45 38 -108 49 -140 10 -32 22 -63
26 -70 4 -6 8 -22 9 -35 2 -13 7 -29 12 -35 9 -11 24 -64 20 -69 -1 -2 5 -14
12 -28 8 -14 15 -34 17 -45 2 -11 8 -22 13 -23 6 -2 8 -7 5 -12 -2 -4 2 -21
10 -37 8 -16 16 -38 18 -49 2 -10 12 -42 22 -70 l19 -51 60 31 c34 17 63 33
66 36 3 3 30 18 60 34 30 16 75 40 100 54 89 50 146 81 205 112 33 18 71 40
85 49 14 9 47 27 75 41 27 14 56 31 63 38 7 6 20 12 28 12 8 0 14 5 14 10 0 6
18 18 40 27 22 10 40 21 40 25 0 5 5 8 11 8 12 0 133 80 137 92 2 4 8 8 14 8
6 0 26 15 44 34 18 19 35 31 38 28 3 -3 6 2 6 11 0 9 4 17 9 17 8 0 19 25 25
55 6 26 -54 95 -81 95 -7 0 -13 5 -13 10 0 6 -9 10 -20 10 -11 0 -20 3 -20 8
0 4 -12 13 -27 19 -44 20 -99 78 -129 134 -38 74 -52 144 -49 251 1 56 5 113
8 126 15 56 19 70 44 132 14 36 33 74 42 84 13 16 13 18 1 11 -8 -4 -3 5 13
22 15 16 27 33 27 37 0 4 6 14 13 21 29 34 37 45 37 55 0 6 4 9 9 6 10 -6 26
23 22 39 -2 5 1 7 5 3 4 -4 29 15 56 42 27 28 53 50 57 50 5 0 11 6 14 14 8
20 128 76 206 96 106 28 218 19 311 -24 63 -29 122 -114 155 -223 13 -43 14
-312 1 -363 -3 -14 -8 -58 -11 -99 -5 -81 6 -114 44 -126 26 -8 93 22 154 68
26 21 49 37 52 37 3 0 13 8 23 18 10 9 31 26 46 37 16 11 39 30 52 43 13 12
28 22 34 22 5 0 10 5 10 10 0 6 5 10 11 10 7 0 19 8 28 18 9 10 34 31 56 48
22 16 45 34 51 39 6 6 28 24 49 40 21 17 52 41 69 55 17 14 39 32 50 40 58 45
86 81 81 102 -11 52 -36 175 -40 198 -4 27 -11 63 -21 108 -3 15 -7 36 -9 47
-10 58 -16 92 -20 105 -2 8 -7 31 -10 50 -3 19 -8 42 -10 50 -2 8 -7 31 -10
50 -4 30 -19 114 -50 280 -29 160 -34 313 -11 361 19 41 36 51 132 75 120 30
254 105 254 143 0 6 4 11 8 11 7 0 33 46 42 72 24 78 27 105 25 193 -2 55 -6
114 -10 130 -10 47 -25 106 -42 157 -8 26 -14 50 -13 54 1 4 -2 10 -7 13 -5 3
-16 21 -25 39 -21 45 -100 141 -115 142 -7 0 -13 5 -13 10 0 6 -7 10 -15 10
-8 0 -15 4 -15 9 0 15 -81 23 -98 9 -8 -7 -16 -11 -16 -9 -1 2 -11 1 -24 -3
-12 -4 -20 -11 -17 -16 3 -5 -4 -11 -15 -15 -11 -4 -18 -10 -15 -15 3 -4 -1
-10 -8 -13 -15 -6 -107 -180 -107 -202 0 -9 -4 -23 -9 -33 -24 -44 -39 -82
-30 -76 19 11 -63 -96 -84 -111 -26 -18 -66 -19 -104 -3 -15 6 -31 11 -35 10
-5 -1 -8 2 -8 7 0 5 -16 26 -35 45 -39 41 -72 95 -180 300 -27 52 -53 92 -59
89 -5 -4 -6 -1 -2 6 5 7 0 21 -10 32 -9 10 -13 19 -8 19 5 0 4 4 -2 8 -5 4
-25 36 -43 72 -18 36 -39 72 -45 80 -7 8 -25 40 -41 70 -16 30 -35 61 -42 68
-7 7 -13 18 -13 23 0 12 -61 112 -74 121 -6 4 -7 8 -3 8 11 0 -25 60 -36 60
-4 0 -5 5 -2 10 10 16 2 11 -35 -21z"/>
<path d="M13361 8394 c0 -11 3 -14 6 -6 3 7 2 16 -1 19 -3 4 -6 -2 -5 -13z"/>
<path d="M401 8273 c-5 -21 -30 -114 -55 -208 -24 -93 -48 -186 -52 -205 -4
-19 -9 -39 -10 -45 -6 -29 -44 -214 -47 -235 -7 -38 -19 -103 -24 -125 -2 -11
-6 -36 -9 -55 -22 -146 -58 -262 -79 -254 -16 6 -23 44 -30 150 -16 232 -45
205 -70 -66 -2 -30 -8 -91 -12 -135 -10 -103 -10 -447 0 -504 9 -54 13 -60 30
-37 17 23 44 11 51 -22 18 -86 24 -156 31 -318 3 -71 7 -140 10 -154 2 -14 7
-63 10 -109 4 -47 8 -92 10 -100 1 -9 6 -50 9 -91 4 -41 8 -86 10 -100 2 -14
7 -54 11 -90 4 -36 8 -72 10 -80 2 -8 6 -42 9 -75 4 -33 9 -69 11 -80 2 -11 4
-32 4 -47 1 -29 7 -36 71 -88 24 -19 48 -40 54 -46 26 -25 134 -92 169 -105
56 -20 72 -6 71 63 -1 58 -39 188 -55 188 -6 0 -8 4 -5 9 3 4 -3 31 -14 60
-53 147 -76 364 -54 520 7 50 46 146 72 174 50 56 144 72 213 37 60 -31 149
-127 195 -210 118 -217 158 -471 106 -670 -28 -103 -24 -196 8 -243 50 -73
111 -83 505 -81 328 2 296 -1 290 32 -6 33 -10 53 -24 112 -5 25 -12 59 -15
75 -9 44 -14 74 -26 130 -5 28 -12 66 -15 85 -3 19 -11 69 -19 110 -7 41 -12
78 -9 83 2 4 1 7 -4 7 -4 0 -8 12 -8 28 -1 28 -12 126 -21 177 -9 53 -11 238
-2 285 5 25 10 55 13 67 2 13 14 41 26 62 17 31 30 41 61 49 53 14 105 -2 200
-61 101 -63 144 -77 231 -73 183 7 326 146 363 353 26 143 -5 284 -93 419
-125 193 -297 200 -543 23 -106 -76 -184 -92 -240 -51 -32 25 -67 94 -79 157
-9 48 -7 300 3 395 2 25 7 92 11 150 3 58 8 119 10 135 2 17 7 62 9 100 3 39
8 90 11 115 15 148 15 160 3 160 -300 5 -567 1 -585 -8 -46 -25 -67 -70 -67
-146 -1 -39 3 -84 7 -101 20 -71 16 -334 -6 -430 -37 -160 -77 -249 -143 -320
-21 -22 -37 -43 -36 -47 1 -5 -1 -7 -6 -6 -4 1 -24 -6 -45 -15 -62 -27 -101
-31 -140 -12 -101 48 -159 201 -158 419 0 60 2 121 5 135 3 14 8 44 11 66 11
79 70 255 98 293 21 28 57 116 53 128 -3 8 -1 16 4 19 17 10 11 98 -8 120 -9
11 -48 40 -87 65 -38 24 -88 59 -111 77 -22 18 -45 29 -49 25 -5 -4 -5 -2 -1
5 3 6 2 14 -3 18 -6 3 -15 -11 -20 -32z"/>
<path d="M13402 8230 c0 -14 2 -19 5 -12 2 6 2 18 0 25 -3 6 -5 1 -5 -13z"/>
<path d="M13411 8184 c0 -11 3 -14 6 -6 3 7 2 16 -1 19 -3 4 -6 -2 -5 -13z"/>
<path d="M13422 8140 c0 -14 2 -19 5 -12 2 6 2 18 0 25 -3 6 -5 1 -5 -13z"/>
<path d="M13431 8094 c0 -11 3 -14 6 -6 3 7 2 16 -1 19 -3 4 -6 -2 -5 -13z"/>
<path d="M13544 7303 c2 -10 0 -25 -5 -33 -6 -12 -41 -128 -53 -175 -1 -5 -8
-28 -14 -50 -6 -22 -14 -53 -18 -70 -9 -46 -12 -225 -3 -265 4 -19 10 -53 13
-75 4 -23 9 -52 11 -65 19 -90 19 -432 1 -530 -2 -14 -7 -41 -10 -61 -3 -20
-10 -49 -16 -65 -6 -16 -11 -31 -11 -34 1 -17 -24 -94 -50 -148 -16 -35 -29
-66 -29 -69 0 -16 -54 -53 -78 -53 -100 0 -141 264 -95 613 7 54 8 202 2 249
-4 33 -24 43 -48 25 -10 -6 -54 -50 -97 -96 -43 -47 -149 -155 -234 -240 -85
-86 -154 -159 -153 -162 1 -3 4 -30 7 -60 3 -30 7 -63 10 -75 2 -12 7 -45 10
-75 4 -30 9 -70 12 -89 3 -19 7 -55 9 -80 2 -25 7 -81 11 -125 9 -92 10 -457
2 -495 -3 -14 -9 -43 -13 -65 -11 -59 -48 -136 -83 -175 -18 -19 -32 -30 -32
-25 0 6 -4 4 -9 -4 -7 -11 -31 -15 -88 -16 -60 0 -89 -5 -125 -23 -72 -36
-170 -127 -228 -212 -8 -12 -22 -29 -30 -38 -8 -9 -14 -17 -12 -19 1 -2 -4
-13 -12 -26 -17 -25 -87 -202 -85 -214 1 -5 0 -10 -1 -13 -17 -43 -23 -180
-11 -226 20 -75 81 -121 145 -109 17 4 33 6 36 5 18 -7 170 98 170 117 0 5 9
15 20 23 11 8 20 20 20 27 0 7 5 13 12 13 6 0 9 3 5 6 -3 4 -1 12 6 20 22 25
32 39 67 94 31 49 94 120 107 120 2 0 11 7 19 15 20 19 54 19 54 0 0 -8 4 -15
10 -15 6 0 8 -34 5 -87 -4 -76 -10 -128 -15 -128 -1 0 -8 -29 -13 -62 -1 -10
-6 -24 -11 -31 -4 -7 -6 -16 -3 -19 3 -3 1 -17 -4 -32 -6 -14 -12 -37 -14 -51
-5 -31 -10 -50 -18 -70 -3 -8 -8 -26 -10 -40 -7 -33 -14 -59 -47 -180 -12 -41
-23 -82 -25 -90 -2 -8 -8 -28 -14 -44 -7 -16 -9 -31 -7 -33 8 -9 235 220 229
230 -3 6 -2 8 3 5 13 -8 134 127 134 149 0 7 6 16 13 20 13 8 51 80 52 98 1 6
6 20 13 32 7 12 11 26 10 30 -2 8 6 67 18 129 3 16 7 38 9 49 2 11 8 35 13 53
6 17 8 32 5 32 -3 0 0 7 7 15 7 9 10 18 7 21 -3 3 1 21 9 40 8 19 12 39 9 44
-4 6 -2 10 3 10 6 0 16 24 23 53 6 28 18 66 25 82 7 17 12 32 12 35 0 3 5 16
10 30 27 67 37 96 34 103 -1 4 2 7 8 7 5 0 10 7 10 16 0 8 13 42 29 75 17 32
27 59 24 59 -3 0 0 8 8 18 8 9 28 42 44 72 33 64 48 80 69 80 16 0 20 -25 18
-90 -1 -23 0 -23 10 -6 5 10 17 46 25 80 19 80 19 78 28 99 4 10 5 20 2 24 -4
3 1 19 9 35 9 17 13 32 11 35 -3 2 -1 20 5 40 11 39 11 41 34 163 9 47 18 99
20 115 2 17 6 41 9 55 3 14 8 47 11 74 3 27 7 52 9 56 2 3 6 28 9 55 4 28 8
61 11 75 5 28 13 77 21 140 5 44 7 65 20 233 3 45 9 111 12 147 9 118 13 730
4 730 -8 0 -18 96 -25 237 -1 17 -5 34 -9 38 -3 4 -5 -1 -4 -12z"/>
<path d="M6618 7284 c-2 -1 -16 -4 -33 -7 -52 -9 -128 -28 -139 -35 -6 -3 -17
-7 -25 -9 -30 -4 -140 -80 -192 -132 -133 -135 -181 -304 -133 -471 28 -99 89
-173 194 -236 153 -92 223 -219 179 -327 -35 -89 -157 -179 -321 -238 -21 -7
-38 -17 -38 -22 0 -4 -4 -6 -9 -3 -5 4 -22 1 -38 -6 -15 -6 -30 -12 -33 -13
-3 -1 -12 -5 -20 -8 -33 -14 -321 -117 -409 -146 -52 -17 -99 -35 -105 -38 -6
-4 -17 -8 -26 -9 -13 -1 -251 -80 -317 -105 l-22 -8 26 -68 c14 -37 32 -86 39
-108 17 -51 39 -112 55 -150 7 -16 13 -32 14 -35 5 -19 19 -60 30 -85 28 -67
55 -138 55 -146 0 -5 11 -33 25 -63 14 -30 25 -57 25 -60 0 -3 23 -53 51 -112
83 -175 136 -232 205 -220 19 4 34 11 34 16 0 6 6 10 13 10 7 0 38 28 68 62
108 123 143 160 189 193 72 53 206 116 279 131 14 3 28 7 32 10 16 9 118 18
204 17 143 -1 278 -45 371 -120 23 -18 46 -33 53 -33 6 0 10 -3 9 -7 -2 -5 9
-21 24 -38 60 -67 69 -80 93 -129 88 -181 35 -397 -140 -572 -118 -118 -264
-193 -430 -220 -36 -6 -229 -5 -255 1 -43 11 -169 7 -207 -6 -76 -25 -104 -80
-83 -162 14 -53 339 -707 352 -707 5 0 7 -4 3 -9 -8 -13 35 -83 49 -78 6 2 48
17 94 32 45 15 82 32 82 37 0 5 4 7 9 4 7 -5 76 20 176 64 11 5 51 21 89 35
38 15 77 31 85 35 9 5 43 18 76 30 33 12 71 27 85 33 14 6 27 11 30 12 3 1 59
18 125 39 126 39 150 47 169 50 6 2 36 8 66 14 30 7 71 14 90 16 19 3 35 5 35
6 0 1 34 4 75 6 96 6 153 -19 188 -83 25 -46 32 -138 13 -185 -6 -16 -8 -28
-6 -28 2 0 0 -12 -6 -26 -22 -60 -6 -234 22 -234 6 0 8 -4 4 -9 -9 -16 67 -82
123 -107 64 -29 103 -36 207 -37 101 0 150 7 238 34 69 21 172 75 207 108 9 9
25 21 36 28 10 6 18 16 17 22 -2 6 1 10 6 8 16 -4 90 86 123 151 67 132 33
259 -94 357 -7 6 -48 32 -91 59 -91 56 -129 105 -133 170 -6 102 102 213 301
311 33 16 62 30 65 30 24 6 106 49 112 58 4 7 8 9 8 5 0 -10 173 72 526 249
l312 157 -19 50 c-10 28 -34 98 -54 156 -43 125 -75 214 -112 313 -15 39 -28
74 -28 77 -1 15 -92 211 -113 244 -47 75 -74 93 -137 88 -24 -2 -76 -49 -125
-112 -19 -25 -38 -46 -42 -48 -5 -2 -8 -8 -8 -13 0 -11 -37 -55 -96 -116 -23
-24 -39 -45 -38 -48 2 -3 1 -3 -2 -1 -5 4 -110 -62 -149 -92 -26 -21 -176 -75
-252 -92 -80 -17 -263 -24 -263 -10 0 3 -8 7 -17 8 -56 6 -137 43 -199 89 -17
12 -34 21 -37 18 -4 -3 -5 -2 -3 1 7 10 -18 32 -29 26 -5 -3 -7 -2 -3 2 3 4
-16 35 -43 69 -58 72 -79 131 -86 242 -11 168 62 339 206 484 55 56 153 131
170 131 4 0 19 8 32 18 20 16 132 62 164 68 6 1 41 9 78 17 38 8 123 15 190
16 143 2 227 24 272 71 16 16 26 33 22 36 -4 4 -2 13 4 20 18 22 -1 139 -30
190 -6 10 -29 60 -52 109 -48 104 -89 193 -149 320 -86 181 -137 291 -155 333
-10 23 -22 42 -27 42 -4 0 -43 -19 -85 -41 -304 -162 -844 -418 -951 -449 -23
-7 -42 -17 -42 -22 0 -5 -4 -7 -8 -4 -5 3 -37 -4 -73 -15 -77 -25 -133 -33
-220 -33 -154 1 -198 97 -144 314 2 8 10 38 18 65 18 63 15 153 -7 227 -19 66
-97 185 -117 180 -8 -2 -11 -1 -7 3 16 16 -75 72 -162 100 -45 15 -222 30
-232 19z"/>
<path d="M0 6381 c0 -53 4 -91 10 -91 5 0 9 -10 8 -22 -1 -23 10 -157 17 -213
2 -16 7 -60 10 -97 3 -37 9 -80 12 -95 3 -15 5 -35 5 -43 0 -8 4 -42 9 -75 4
-33 11 -78 14 -100 6 -49 19 -100 34 -140 7 -16 10 -40 6 -52 -4 -19 -1 -23
19 -23 18 0 24 -4 20 -14 -3 -8 -1 -17 5 -20 10 -6 9 9 -5 97 -3 23 -8 56 -9
73 -2 18 -8 67 -14 110 -23 177 -39 384 -46 625 -2 58 -8 115 -14 126 -5 11
-7 23 -4 27 3 3 -1 6 -11 6 -9 0 -15 -4 -12 -9 3 -5 -1 -12 -10 -15 -25 -10
-34 -7 -28 8 3 8 1 17 -5 21 -8 4 -11 -23 -11 -84z"/>
<path d="M4945 5505 c-5 -2 -44 -13 -85 -25 -41 -12 -82 -25 -90 -28 -8 -3
-17 -6 -20 -6 -3 -1 -23 -7 -45 -14 -136 -42 -360 -106 -485 -138 -8 -2 -49
-13 -90 -24 -41 -12 -86 -23 -99 -26 -33 -7 -149 -60 -165 -76 -70 -70 -35
-161 104 -267 53 -40 86 -79 136 -161 26 -41 47 -77 47 -80 -1 -3 3 -16 8 -29
32 -83 42 -215 23 -296 -32 -136 -127 -252 -262 -321 -42 -21 -79 -42 -80 -47
-2 -4 -8 -5 -13 -2 -5 3 -18 1 -30 -6 -32 -17 -185 -19 -259 -4 -185 40 -340
141 -433 283 -60 92 -78 140 -96 252 -7 45 10 200 29 269 19 70 9 154 -23 184
-43 41 -118 49 -257 28 -36 -6 -81 -13 -100 -16 -19 -3 -57 -8 -85 -11 -27 -3
-61 -7 -75 -10 -14 -2 -45 -6 -70 -9 -25 -3 -63 -7 -85 -10 -22 -3 -65 -8 -95
-11 -30 -3 -71 -7 -90 -10 -19 -2 -57 -7 -85 -10 -27 -4 -51 -7 -53 -9 -6 -6
55 -183 115 -330 153 -374 198 -539 195 -713 -3 -224 -64 -248 -327 -127 -159
72 -265 86 -349 45 -106 -51 -117 -201 -30 -410 33 -77 58 -113 139 -198 124
-131 274 -221 381 -227 72 -4 114 12 163 63 66 71 98 87 171 87 81 0 122 -19
193 -88 49 -48 137 -158 137 -172 0 -9 72 -119 82 -126 5 -3 9 -9 8 -13 -2 -9
141 -240 152 -244 4 -2 8 -9 8 -15 0 -6 18 -37 40 -68 22 -32 40 -60 40 -64 0
-4 9 -16 21 -26 11 -9 20 -21 20 -26 0 -4 25 -47 57 -95 53 -81 59 -86 87 -82
16 2 59 6 95 10 36 3 79 7 95 9 35 5 102 13 165 19 61 6 149 16 185 22 17 3
43 7 58 9 15 2 47 7 70 10 133 20 241 61 250 96 6 22 -29 77 -57 93 -11 6 -28
18 -38 27 -10 9 -31 22 -46 30 -124 62 -236 172 -292 284 -76 156 -64 292 37
401 39 41 133 111 133 98 0 -4 8 0 18 8 9 8 50 25 90 38 58 19 94 23 185 23
235 0 423 -76 580 -237 115 -118 162 -247 133 -371 -17 -74 -16 -130 1 -164
28 -54 68 -71 160 -67 43 2 89 6 103 10 48 11 325 88 340 94 19 7 17 6 70 21
68 18 174 49 285 82 55 17 132 40 170 51 39 12 74 24 78 29 5 4 -14 49 -41
100 -27 52 -74 141 -103 199 -29 58 -58 108 -64 112 -5 4 -7 8 -3 8 3 0 -15
44 -42 98 -162 328 -198 530 -110 612 63 59 218 70 405 30 41 -9 155 -6 210 5
135 26 264 93 351 180 125 125 165 277 118 447 -9 32 -21 58 -25 58 -5 0 -9 7
-9 15 0 8 -28 43 -62 78 -78 78 -150 115 -275 142 -81 18 -232 8 -318 -20 -58
-19 -139 -57 -143 -67 -2 -5 -9 -8 -16 -8 -7 0 -69 -52 -137 -117 -91 -86
-141 -124 -188 -146 -124 -58 -240 -39 -326 53 -22 23 -48 51 -57 61 -10 11
-18 21 -18 24 1 3 -14 38 -33 78 -19 39 -57 135 -85 212 -29 77 -96 261 -151
410 -55 148 -103 270 -108 271 -4 1 -12 1 -18 -1z"/>
<path d="M135 5365 c4 -11 7 -27 7 -35 0 -8 7 -42 15 -75 8 -33 16 -71 18 -85
2 -14 13 -64 25 -110 12 -47 24 -94 25 -105 1 -11 4 -21 5 -22 1 -2 4 -7 5
-13 1 -5 3 -11 5 -12 1 -2 3 -11 5 -21 11 -58 30 -117 37 -117 5 0 7 -4 3 -9
-5 -9 20 -91 48 -161 6 -14 11 -31 13 -38 1 -8 6 -21 10 -30 4 -9 8 -21 10
-27 5 -22 24 -65 28 -65 2 0 -3 21 -11 48 -8 26 -18 63 -22 82 -4 19 -13 45
-20 58 -6 12 -10 22 -7 22 3 0 -2 23 -10 52 -9 28 -17 60 -19 71 -3 10 -7 27
-10 37 -3 10 -8 28 -10 39 -7 31 -12 49 -30 126 -9 39 -19 79 -21 90 -2 11
-12 53 -23 93 -10 39 -18 72 -16 72 7 0 -46 135 -57 145 -8 7 -9 4 -3 -10z"/>
<path d="M13190 4430 c-6 -11 -8 -20 -6 -20 3 0 10 9 16 20 6 11 8 20 6 20 -3
0 -10 -9 -16 -20z"/>
<path d="M416 4360 c5 -8 9 -18 9 -22 0 -3 3 -9 7 -13 3 -4 5 0 4 9 -1 9 -8
22 -16 29 -10 10 -11 9 -4 -3z"/>
<path d="M13160 4357 c0 -9 -4 -17 -9 -17 -6 0 -9 -8 -9 -17 0 -10 -7 -35 -16
-55 -9 -22 -12 -38 -6 -38 5 0 10 4 10 9 0 5 5 22 12 38 7 15 13 33 13 38 1 6
5 18 10 28 4 10 5 21 1 24 -3 4 -6 -1 -6 -10z"/>
<path d="M13106 4204 c-8 -20 -8 -24 2 -24 4 0 8 9 9 20 2 24 -3 26 -11 4z"/>
<path d="M503 4135 c6 -24 38 -106 63 -160 10 -22 17 -43 16 -47 -1 -5 3 -8 8
-8 6 0 10 -9 10 -20 0 -11 5 -20 10 -20 6 0 10 -5 10 -11 0 -18 53 -133 65
-141 5 -4 6 -8 1 -8 -5 0 -1 -10 10 -22 10 -12 13 -18 5 -13 -8 5 -5 -6 8 -23
12 -18 19 -32 14 -32 -4 0 -3 -4 2 -8 12 -8 39 -64 37 -74 -1 -5 2 -8 6 -8 5
0 17 -18 27 -40 10 -22 22 -40 27 -40 5 0 7 -3 5 -7 -6 -11 60 -73 69 -65 4 4
4 2 1 -4 -3 -6 2 -20 11 -30 10 -10 33 -40 51 -66 19 -27 39 -48 44 -48 6 0 8
-3 4 -6 -8 -8 62 -71 85 -77 64 -17 39 134 -58 348 -10 22 -17 43 -16 48 1 4
-2 7 -7 7 -5 0 -13 10 -17 23 -4 12 -18 40 -33 62 -14 22 -26 42 -26 45 0 7
-78 124 -86 130 -3 3 -12 16 -18 28 -29 55 -146 172 -171 172 -11 0 -26 -10
-34 -22 -15 -21 -16 -21 -37 -2 -12 10 -37 51 -56 89 -19 39 -33 61 -30 50z"/>
<path d="M4111 3090 c-342 -119 -335 -361 19 -650 81 -66 112 -93 128 -112 9
-9 20 -14 26 -11 6 3 8 3 4 -1 -3 -4 5 -24 18 -43 13 -20 24 -41 25 -47 0 -6
2 -18 4 -27 8 -43 -66 -124 -125 -136 -8 -1 -55 -11 -105 -21 -49 -11 -128
-25 -175 -32 -47 -7 -92 -14 -100 -15 -8 -2 -44 -6 -80 -10 -36 -3 -76 -8 -90
-10 -14 -2 -59 -7 -100 -10 -41 -3 -93 -8 -115 -10 -45 -4 -139 -16 -142 -19
-1 -1 12 -17 29 -36 17 -19 42 -51 57 -70 34 -46 78 -99 234 -285 48 -57 232
-241 268 -268 104 -79 164 -79 243 -1 31 31 56 52 56 48 0 -4 5 -3 12 4 7 7
20 12 30 12 10 0 18 3 18 8 0 4 12 8 28 9 15 1 56 6 92 10 80 10 226 0 315
-22 93 -22 265 -93 297 -122 10 -9 18 -12 18 -7 0 5 4 4 8 -1 7 -10 55 -43 69
-48 14 -4 96 -92 119 -127 36 -55 45 -120 23 -169 -19 -42 -64 -77 -111 -88
-16 -3 -28 -8 -28 -12 0 -8 -184 -6 -225 3 -16 3 -45 8 -63 12 -59 9 -24 21
59 20 129 -3 234 32 265 89 20 38 13 108 -14 145 -33 46 -107 120 -119 120 -7
0 -13 4 -13 9 0 11 -129 75 -195 96 -27 9 -57 19 -65 22 -8 3 -24 8 -35 10
-11 1 -42 8 -70 13 -70 15 -240 11 -292 -7 -24 -8 -62 -33 -84 -54 -23 -22
-55 -47 -71 -55 -28 -15 -116 -20 -164 -10 -63 13 -196 93 -266 161 -20 19
-42 35 -48 35 -6 0 -9 4 -6 8 3 5 -3 15 -12 23 -9 9 -38 40 -64 70 -25 30 -54
63 -65 75 -81 92 -127 146 -161 189 -23 28 -79 96 -126 153 l-84 103 -329 3
c-180 2 -337 5 -348 8 -27 7 -75 -11 -75 -27 0 -32 78 -109 250 -248 201 -163
260 -225 314 -333 25 -51 27 -84 5 -110 -15 -19 -97 -18 -143 1 -20 8 -36 13
-36 9 0 -3 -7 2 -16 10 -8 9 -27 19 -42 23 -15 3 -29 9 -32 12 -3 4 -30 22
-60 41 -149 93 -348 261 -475 401 -37 41 -115 154 -115 167 0 5 -25 36 -55 70
-57 62 -151 132 -178 132 -9 0 -17 4 -19 8 -1 4 -21 19 -43 32 -35 20 -141 96
-155 110 -3 3 -14 12 -25 20 l-20 15 20 -25 c11 -14 32 -38 47 -55 15 -16 37
-41 48 -55 157 -184 536 -559 697 -690 10 -8 32 -26 49 -40 17 -14 45 -36 64
-50 18 -14 38 -29 44 -35 6 -5 38 -30 71 -55 33 -25 62 -48 65 -51 3 -3 32
-25 65 -50 33 -24 62 -46 65 -49 14 -15 159 -117 265 -185 183 -120 188 -123
218 -136 15 -7 27 -17 27 -22 0 -6 3 -7 7 -4 3 4 13 1 22 -6 9 -8 48 -31 86
-51 l70 -38 -50 46 -50 45 42 1 c23 0 52 -4 65 -9 13 -5 43 -15 68 -22 25 -7
49 -16 55 -21 5 -4 17 -8 27 -8 10 0 26 -4 36 -9 47 -24 123 -54 137 -54 8 0
15 -3 15 -7 0 -3 21 -15 48 -25 103 -43 342 -170 425 -226 132 -90 199 -123
292 -145 33 -8 573 -18 565 -11 -3 3 -50 28 -105 57 -55 29 -120 64 -145 78
-25 14 -63 34 -85 46 -22 12 -42 23 -45 26 -3 3 -16 11 -29 18 -13 8 -39 23
-59 33 -110 62 -270 188 -292 229 -7 14 -6 23 6 35 16 15 29 15 164 0 14 -2
40 -3 58 -4 48 -1 39 -17 -10 -17 -45 -1 -117 -10 -122 -15 -11 -12 20 -54 59
-81 76 -54 279 -177 293 -178 6 0 12 -4 12 -8 0 -5 12 -15 28 -23 15 -8 60
-33 100 -56 40 -24 74 -43 77 -43 2 0 30 -16 62 -35 52 -31 63 -35 108 -30 28
3 66 7 85 9 82 9 156 18 170 21 8 2 38 7 65 10 28 4 58 9 67 11 10 3 37 7 60
9 24 2 70 7 103 10 156 19 317 9 397 -23 15 -6 64 -45 109 -87 45 -41 88 -75
95 -75 8 0 14 -4 14 -8 0 -7 59 -33 77 -33 5 -1 13 -4 18 -8 10 -9 45 -18 105
-29 48 -9 245 -9 300 0 25 4 65 11 90 14 41 6 94 33 113 59 15 20 -1 75 -30
100 -15 13 -31 25 -36 25 -4 0 -26 9 -50 19 -23 11 -87 29 -142 42 -235 51
-285 120 -133 182 68 28 238 79 293 88 6 1 33 10 60 19 28 9 52 17 55 18 16 2
67 16 75 21 6 3 15 6 20 6 20 1 160 47 171 56 6 5 13 7 15 4 10 -10 154 42
154 56 0 8 -6 13 -12 12 -7 -2 -12 1 -10 6 5 19 -390 424 -405 415 -4 -3 -8 0
-8 6 0 17 -71 42 -105 37 -26 -5 -78 -33 -183 -99 -15 -10 -42 -24 -59 -32
-18 -8 -33 -19 -33 -23 0 -5 -8 -9 -17 -10 -10 0 -50 -14 -89 -31 -175 -74
-373 -78 -551 -12 -53 20 -94 40 -103 51 -3 3 -15 12 -28 18 -30 16 -57 37
-102 81 -102 99 -96 248 14 347 61 55 90 79 97 78 3 0 28 10 55 22 56 25 83
35 103 39 7 1 36 8 65 15 33 8 128 13 266 13 200 1 217 2 250 22 19 12 34 26
32 33 -1 6 3 11 9 11 25 0 -2 76 -63 177 -35 57 -67 112 -73 121 -84 145 -111
188 -117 190 -4 2 -8 8 -8 13 0 13 -122 223 -132 227 -5 2 -6 8 -3 12 3 5 -7
5 -22 0 -233 -74 -290 -92 -298 -94 -20 -4 -130 -37 -145 -43 -8 -3 -24 -8
-34 -10 -11 -2 -25 -8 -33 -14 -7 -6 -13 -9 -13 -6 0 3 -15 1 -32 -4 -29 -9
-199 -54 -238 -64 -55 -14 -264 -55 -308 -60 -159 -20 -277 2 -339 61 -27 26
-38 100 -24 166 30 138 31 162 14 223 -50 172 -219 313 -428 357 -27 6 -99 11
-159 12 -96 2 -119 -1 -185 -24z"/>
</g>
</svg>
